<svg width="1677" height="162" viewBox="0 0 1677 162" fill="none" xmlns="http://www.w3.org/2000/svg">
<path d="M1170.29 4.20001C1165.56 1.44001 1160.38 0.0100098 1154.86 0.0100098H1055.94C1050.27 0.0100098 1045.05 1.43999 1040.37 4.29999C1035.74 7.10999 1032.04 10.9 1029.28 15.59C1026.52 20.28 1025.09 25.55 1025.09 31.21V43.19H1054.07V31.85C1054.07 31.16 1054.32 30.67 1054.86 30.12C1055.4 29.57 1055.94 29.33 1056.59 29.33H1154.23C1154.87 29.33 1155.41 29.58 1155.96 30.12C1156.51 30.66 1156.75 31.2 1156.75 31.85V66.2C1156.75 66.89 1156.5 67.38 1155.96 67.93C1155.42 68.47 1154.88 68.72 1154.23 68.72H1055.95C1050.28 68.72 1045.06 70.15 1040.38 72.91C1035.75 75.67 1032 79.42 1029.29 84.1C1026.53 88.78 1025.1 94.06 1025.1 99.72V161.57H1185.67V132.49H1056.54C1055.9 132.49 1055.36 132.24 1054.81 131.7C1054.26 131.16 1054.02 130.62 1054.02 129.97V100.4C1054.02 99.71 1054.27 99.22 1054.81 98.67C1055.35 98.12 1055.89 97.88 1056.54 97.88H1154.82C1160.34 97.88 1165.52 96.45 1170.25 93.69C1174.98 90.93 1178.73 87.13 1181.49 82.35C1184.25 77.57 1185.63 72.39 1185.63 66.82V31.19C1185.63 25.37 1184.25 20 1181.44 15.32C1178.68 10.64 1174.88 6.89 1170.2 4.13H1170.3V4.20001H1170.29Z" fill="#7FA3CF"/>
<path d="M1332.58 0.0100098H1305.37L1201.23 94.25V121.75H1303.6V161.42H1332.58V121.75H1361.41V92.67H1332.58V0V0.0100098ZM1245.89 92.63L1303.6 41.74V92.63H1245.89Z" fill="#7FA3CF"/>
<path d="M1386.75 148.65H1373.98V161.42H1386.75V148.65Z" fill="#071F5A"/>
<path d="M1418.19 147.72C1417.6 147.13 1417.3 146.45 1417.3 145.62V108.37C1417.3 107.59 1417.6 106.91 1418.19 106.27C1418.78 105.68 1419.47 105.39 1420.26 105.39H1474.13V92.62H1419.92C1417.16 92.62 1414.6 93.3 1412.28 94.77C1409.96 96.23 1408.09 98.09 1406.66 100.43C1405.23 102.77 1404.54 105.31 1404.54 108.08V146.06C1404.54 148.84 1405.23 151.37 1406.66 153.71C1408.09 156.05 1409.96 157.9 1412.28 159.37C1414.6 160.84 1417.16 161.52 1419.92 161.52H1474.38V148.75H1420.26C1419.47 148.75 1418.78 148.46 1418.19 147.87V147.72Z" fill="#071F5A"/>
<path d="M1550.87 94.77C1548.55 93.36 1545.94 92.62 1543.13 92.62H1504.05C1501.29 92.62 1498.73 93.3 1496.41 94.77C1494.09 96.23 1492.22 98.09 1490.79 100.43C1489.36 102.77 1488.67 105.31 1488.67 108.08V146.06C1488.67 148.84 1489.36 151.37 1490.79 153.71C1492.22 156.05 1494.09 157.9 1496.41 159.37C1498.73 160.84 1501.29 161.52 1504.05 161.52H1543.13C1545.99 161.52 1548.55 160.84 1550.87 159.37C1553.19 157.91 1555.06 156.05 1556.44 153.71C1557.82 151.37 1558.51 148.83 1558.51 146.06V108.08C1558.51 105.3 1557.82 102.77 1556.44 100.43C1555.06 98.09 1553.19 96.24 1550.87 94.77ZM1545.65 145.67C1545.65 146.45 1545.35 147.13 1544.81 147.77C1544.27 148.36 1543.58 148.65 1542.79 148.65H1504.45C1503.66 148.65 1502.97 148.36 1502.38 147.77C1501.79 147.18 1501.49 146.5 1501.49 145.67V108.42C1501.49 107.64 1501.79 106.96 1502.38 106.32C1502.97 105.73 1503.66 105.44 1504.45 105.44H1542.79C1543.58 105.44 1544.27 105.73 1544.81 106.32C1545.35 106.91 1545.65 107.59 1545.65 108.42V145.67Z" fill="#071F5A"/>
<path d="M1674.38 100.43C1673 98.09 1671.13 96.24 1668.81 94.77C1666.49 93.31 1663.88 92.62 1661.07 92.62H1573.34V161.41H1586.25V108.36C1586.25 107.58 1586.55 106.9 1587.09 106.26C1587.63 105.67 1588.32 105.38 1589.11 105.38H1615.63C1616.42 105.38 1617.11 105.67 1617.7 106.26C1618.29 106.85 1618.59 107.53 1618.59 108.36V161.41H1631.5V108.36C1631.5 107.58 1631.8 106.9 1632.39 106.26C1632.98 105.63 1633.67 105.38 1634.46 105.38H1660.88C1661.67 105.38 1662.36 105.67 1662.95 106.26C1663.54 106.85 1663.84 107.53 1663.84 108.36V161.41H1676.51V108.02C1676.51 105.24 1675.82 102.71 1674.44 100.37H1674.39V100.42L1674.38 100.43Z" fill="#071F5A"/>
<path d="M375.36 13.61C364.47 2.81999 347.71 0.0100098 293.94 0.0100098C279.94 0.0100098 253.28 0.649984 243.42 1.38998C223.26 2.56998 214.93 4.79001 206.36 11.2C193.74 20.91 189.7 37.72 189.7 80.15C189.7 119.63 191.62 135.65 202.42 146.59C210.11 154.77 218.68 158.17 235.05 159.65C244.46 160.64 278.96 161.47 300.6 161.47C349.29 161.47 366.3 158.36 376.25 147.67C385.76 137.42 389.16 120.02 389.16 81.23C389.16 68.71 388.47 52.99 387.53 44.71C385.56 28.4 382.4 20.26 375.41 13.56H375.36V13.61ZM356.18 119.23C354.75 126.28 351.55 129.53 344.7 130.71C334.84 132.44 314.24 133.57 292.16 133.57C280.87 133.57 255.44 132.88 247.46 132.24C231.93 131.35 227.84 129.78 225.33 127.02C221.14 122.44 220.25 104.35 220.25 78.57C220.25 68.96 220.25 39.58 226.36 34.06C232.27 28.59 256.62 27.85 282.1 27.85C320.05 27.85 332.08 28.29 343.41 30.07C353.56 31.65 355.63 36.13 356.37 40.86C357.6 47.07 358.54 64.57 358.54 81.72C358.54 94.88 357.51 111.09 356.13 119.18H356.18V119.23Z" fill="#071F5A"/>
<path d="M575.9 75.71C583.79 69.4 586.84 59.79 586.84 43.82C586.84 32.98 585.56 26.77 581.96 20.36C575.95 9.11999 564.07 2.27 548.4 0.940002C543.77 0.640002 532.14 0.35 513.51 0H408.14V161.46H513.51C557.03 161.46 573.29 158.31 582.95 148.1C589.6 141.15 592.76 130.21 592.76 113.55C592.76 93.29 587.73 81.51 575.9 75.65V75.7V75.71ZM438.15 27.66H513.36C548.25 28.35 548.65 28.65 552.3 31.46C554.22 32.94 556.29 37.62 556.29 46.44C556.29 57.43 553.04 60.59 550.08 62.21C545.89 64.67 540.32 65.41 513.46 65.41H438.15V27.76V27.66ZM558.11 128.89C553.33 132.78 542.88 133.97 513.46 133.97H438.15V92.91H513.36C539.63 93.35 554.37 93.3 557.67 95.62C560.63 97.69 562.16 104.59 562.16 113.22C562.16 121.11 560.68 126.63 558.07 128.94L558.12 128.89H558.11Z" fill="#071F5A"/>
<path d="M797.34 13.61C786.45 2.81999 769.69 0.0100098 715.92 0.0100098C701.92 0.0100098 675.26 0.649984 665.4 1.38998C645.24 2.56998 636.91 4.79001 628.34 11.2C615.72 20.91 611.68 37.72 611.68 80.15C611.68 119.63 613.6 135.65 624.4 146.59C632.09 154.77 640.66 158.17 657.03 159.65C666.44 160.64 700.94 161.47 722.58 161.47C771.27 161.47 788.28 158.36 798.23 147.67C807.74 137.42 811.14 120.02 811.14 81.23C811.14 68.71 810.45 52.99 809.51 44.71C807.54 28.4 804.38 20.26 797.39 13.56L797.34 13.61ZM778.17 119.23C776.74 126.28 773.54 129.53 766.69 130.71C756.83 132.44 736.23 133.57 714.15 133.57C702.86 133.57 677.43 132.88 669.45 132.24C653.92 131.35 649.83 129.78 647.32 127.02C643.13 122.44 642.24 104.35 642.24 78.57C642.24 68.96 642.24 39.58 648.35 34.06C654.26 28.59 678.61 27.85 704.09 27.85C742.04 27.85 754.07 28.29 765.4 30.07C775.55 31.65 777.62 36.13 778.36 40.86C779.59 47.07 780.53 64.57 780.53 81.72C780.53 94.88 779.49 111.09 778.11 119.18H778.16V119.23H778.17Z" fill="#071F5A"/>
<path d="M820.6 0.0100098V27.61H896.75V161.47H926.81V27.61H1002.52V0.0100098H820.6Z" fill="#071F5A"/>
<path d="M170.28 52.2C170.28 23.37 146.92 0.0100098 118.09 0.0100098H0V161.47H30.02V104.45H112.92L144.66 161.47H178.42L143.03 98.09C159.25 89.22 170.29 72.02 170.29 52.2H170.28ZM29.96 28.3H116.26C129.47 28.3 140.21 39.04 140.21 52.25C140.21 65.46 129.47 76.2 116.26 76.2H29.96V28.29V28.3Z" fill="#071F5A"/>
</svg>
